<svg xmlns="http://www.w3.org/2000/svg" width="20pt" height="20pt" viewBox="0 0 20 20"><path d="M19.266 6.25H10a3.753 3.753 0 00-3.754 3.746c0 .645.164 1.277.48 1.836l-4.632-7.95c3.375-4.366 9.648-5.171 14.015-1.796a9.979 9.979 0 013.157 4.164zm0 0" fill="#f44336"/><path d="M20 10c-.004 5.52-4.48 9.996-10 10-.418 0-.836-.027-1.25-.082l4.5-8.043a3.758 3.758 0 00-1.375-5.125 3.725 3.725 0 00-1.867-.5h9.258A9.808 9.808 0 0120 10zm0 0" fill="#ffc107"/><path d="M13.25 11.875l-4.5 8.043h-.008C3.266 19.227-.613 14.227.078 8.75a10.03 10.03 0 012.016-4.867l4.633 7.949.023.043a3.748 3.748 0 006.5 0zm0 0" fill="#4caf50"/><path d="M13.25 11.875a3.746 3.746 0 01-5.121 1.379 3.736 3.736 0 01-1.379-1.379l-.023-.043A3.746 3.746 0 018.164 6.73 3.723 3.723 0 0110 6.25h.008c.656 0 1.3.172 1.867.5a3.758 3.758 0 011.375 5.125zm0 0" fill="#f44336"/><path d="M13.25 11.875a3.746 3.746 0 01-5.121 1.379 3.736 3.736 0 01-1.379-1.379l-.023-.043A3.746 3.746 0 018.164 6.73 3.723 3.723 0 0110 6.25h.008c.656 0 1.3.172 1.867.5a3.758 3.758 0 011.375 5.125zm0 0" fill="#2196f3"/><path d="M9.984 14.168a4.138 4.138 0 01-2.066-.555 4.162 4.162 0 01-1.527-1.531A4.165 4.165 0 0110 5.832c2.3 0 4.168 1.863 4.172 4.164 0 .734-.195 1.453-.559 2.086a4.197 4.197 0 01-3.629 2.086zm.024-7.5a3.318 3.318 0 00-2.899 1.664 3.336 3.336 0 104.559-1.219 3.345 3.345 0 00-1.66-.445zm0 0" fill="#fafafa"/></svg>